<svg width="202" height="31" viewBox="0 0 202 31" fill="none" xmlns="http://www.w3.org/2000/svg">
<path d="M16.5702 4.05157C15.853 3.84102 15.1063 4.26641 14.8996 4.99688L9.49957 24.2469C9.29285 24.9774 9.71051 25.7379 10.4277 25.9484C11.1449 26.159 11.8916 25.7336 12.0983 25.0031L17.4983 5.75313C17.705 5.02266 17.2874 4.26212 16.5702 4.05157ZM19.9705 9.21212C19.4432 9.74922 19.4432 10.6215 19.9705 11.1586L23.7379 15L19.9663 18.8414C19.4389 19.3785 19.4389 20.2508 19.9663 20.7879C20.4936 21.325 21.35 21.325 21.8774 20.7879L26.6024 15.9754C27.1297 15.4383 27.1297 14.566 26.6024 14.0289L21.8774 9.21641C21.35 8.6793 20.4936 8.6793 19.9663 9.21641L19.9705 9.21212ZM7.0316 9.21212C6.50426 8.67501 5.64785 8.67501 5.12051 9.21212L0.395508 14.0246C-0.131836 14.5617 -0.131836 15.434 0.395508 15.9711L5.12051 20.7836C5.64785 21.3207 6.50426 21.3207 7.0316 20.7836C7.55895 20.2465 7.55895 19.3742 7.0316 18.8371L3.26004 15L7.0316 11.1586C7.55895 10.6215 7.55895 9.74922 7.0316 9.21212Z" fill="white"/>
<path d="M41.3866 24H32.245V7.58105H41.3866V9.26562H34.1542V14.5776H40.9711V16.2397H34.1542V22.3154H41.3866V24ZM49.1244 24.2246C47.5671 24.2246 46.3318 23.693 45.4184 22.6299C44.5124 21.5667 44.0595 19.987 44.0595 17.8906C44.0595 15.7718 44.5237 14.1733 45.4521 13.0952C46.3804 12.0096 47.6158 11.4668 49.1581 11.4668C49.8095 11.4668 50.3785 11.5529 50.8651 11.7251C51.3518 11.8973 51.7711 12.1294 52.123 12.4214C52.4748 12.7059 52.7706 13.0316 53.0102 13.3984H53.1449C53.115 13.1663 53.085 12.8481 53.0551 12.4438C53.0251 12.0396 53.0102 11.7101 53.0102 11.4556V6.52539H54.8744V24H53.3695L53.0888 22.248H53.0102C52.7781 22.6149 52.4823 22.9481 52.123 23.2476C51.7711 23.547 51.3481 23.7866 50.8539 23.9663C50.3673 24.1385 49.7908 24.2246 49.1244 24.2246ZM49.4164 22.6748C50.7341 22.6748 51.6662 22.3005 52.2128 21.5518C52.7593 20.8031 53.0326 19.6912 53.0326 18.2163V17.8794C53.0326 16.3146 52.7706 15.113 52.2465 14.2744C51.7299 13.4359 50.7865 13.0166 49.4164 13.0166C48.2709 13.0166 47.4136 13.4583 46.8446 14.3418C46.2756 15.2178 45.9911 16.4157 45.9911 17.9355C45.9911 19.4479 46.2719 20.6159 46.8334 21.4395C47.4024 22.263 48.2634 22.6748 49.4164 22.6748ZM68.9911 11.6914V24H67.4638L67.1942 22.2705H67.0932C66.8386 22.6973 66.5092 23.0566 66.1049 23.3486C65.7006 23.6406 65.2439 23.8577 64.7348 24C64.2331 24.1497 63.6978 24.2246 63.1288 24.2246C62.1555 24.2246 61.3394 24.0674 60.6806 23.7529C60.0217 23.4385 59.5238 22.9518 59.1869 22.293C58.8575 21.6341 58.6928 20.7881 58.6928 19.7549V11.6914H60.5795V19.6201C60.5795 20.6458 60.8116 21.4132 61.2758 21.9224C61.74 22.424 62.4475 22.6748 63.3983 22.6748C64.3118 22.6748 65.038 22.5026 65.5771 22.1582C66.1236 21.8138 66.5167 21.3084 66.7563 20.6421C66.9958 19.9683 67.1156 19.1447 67.1156 18.1714V11.6914H68.9911ZM77.5375 11.4893C79.005 11.4893 80.0943 11.8187 80.8056 12.4775C81.5168 13.1364 81.8725 14.1883 81.8725 15.6333V24H80.5136L80.1542 22.1807H80.0644C79.72 22.6299 79.3606 23.008 78.9862 23.3149C78.6119 23.6144 78.1776 23.8428 77.6835 24C77.1968 24.1497 76.5979 24.2246 75.8866 24.2246C75.1379 24.2246 74.4716 24.0936 73.8876 23.8315C73.3111 23.5695 72.8544 23.1727 72.5175 22.6411C72.1881 22.1095 72.0233 21.4357 72.0233 20.6196C72.0233 19.3918 72.51 18.4484 73.4833 17.7896C74.4566 17.1307 75.939 16.7713 77.9306 16.7114L80.0531 16.6216V15.8691C80.0531 14.806 79.8248 14.061 79.3681 13.6343C78.9114 13.2075 78.2675 12.9941 77.4364 12.9941C76.7926 12.9941 76.1786 13.0877 75.5946 13.2749C75.0107 13.4621 74.4566 13.6829 73.9325 13.9375L73.3598 12.5225C73.9138 12.238 74.5502 11.9946 75.269 11.7925C75.9877 11.5903 76.7439 11.4893 77.5375 11.4893ZM80.0307 17.9355L78.1552 18.0142C76.6204 18.0741 75.5385 18.3249 74.9096 18.7666C74.2807 19.2083 73.9662 19.8335 73.9662 20.6421C73.9662 21.3459 74.1796 21.8662 74.6064 22.2031C75.0331 22.54 75.5984 22.7085 76.3022 22.7085C77.3953 22.7085 78.2899 22.4053 78.9862 21.7988C79.6825 21.1924 80.0307 20.2827 80.0307 19.0698V17.9355ZM91.3061 11.4668C91.5531 11.4668 91.8114 11.4818 92.081 11.5117C92.3505 11.5342 92.5901 11.5679 92.7997 11.6128L92.5639 13.3423C92.3617 13.2899 92.1371 13.2487 91.89 13.2188C91.643 13.1888 91.4109 13.1738 91.1938 13.1738C90.6996 13.1738 90.2317 13.2749 89.7899 13.4771C89.3557 13.6717 88.9739 13.9562 88.6444 14.3306C88.315 14.6974 88.0567 15.1429 87.8695 15.667C87.6824 16.1836 87.5888 16.7601 87.5888 17.3965V24H85.7133V11.6914H87.2631L87.4652 13.96H87.5439C87.7984 13.5033 88.1054 13.0877 88.4648 12.7134C88.8241 12.3315 89.2397 12.0283 89.7113 11.8037C90.1905 11.5791 90.7221 11.4668 91.3061 11.4668ZM99.5043 24.2246C97.947 24.2246 96.7117 23.693 95.7982 22.6299C94.8923 21.5667 94.4394 19.987 94.4394 17.8906C94.4394 15.7718 94.9036 14.1733 95.8319 13.0952C96.7603 12.0096 97.9957 11.4668 99.538 11.4668C100.189 11.4668 100.758 11.5529 101.245 11.7251C101.732 11.8973 102.151 12.1294 102.503 12.4214C102.855 12.7059 103.15 13.0316 103.39 13.3984H103.525C103.495 13.1663 103.465 12.8481 103.435 12.4438C103.405 12.0396 103.39 11.7101 103.39 11.4556V6.52539H105.254V24H103.749L103.469 22.248H103.39C103.158 22.6149 102.862 22.9481 102.503 23.2476C102.151 23.547 101.728 23.7866 101.234 23.9663C100.747 24.1385 100.171 24.2246 99.5043 24.2246ZM99.7963 22.6748C101.114 22.6748 102.046 22.3005 102.593 21.5518C103.139 20.8031 103.413 19.6912 103.413 18.2163V17.8794C103.413 16.3146 103.15 15.113 102.626 14.2744C102.11 13.4359 101.166 13.0166 99.7963 13.0166C98.6508 13.0166 97.7935 13.4583 97.2245 14.3418C96.6555 15.2178 96.371 16.4157 96.371 17.9355C96.371 19.4479 96.6518 20.6159 97.2133 21.4395C97.7823 22.263 98.6433 22.6748 99.7963 22.6748ZM119.82 17.8232C119.82 18.834 119.689 19.7362 119.427 20.5298C119.165 21.3234 118.787 21.9935 118.293 22.54C117.799 23.0866 117.2 23.5059 116.496 23.7979C115.8 24.0824 115.01 24.2246 114.126 24.2246C113.303 24.2246 112.547 24.0824 111.858 23.7979C111.177 23.5059 110.585 23.0866 110.083 22.54C109.589 21.9935 109.204 21.3234 108.927 20.5298C108.657 19.7362 108.522 18.834 108.522 17.8232C108.522 16.4756 108.751 15.3301 109.207 14.3867C109.664 13.4359 110.316 12.7134 111.162 12.2192C112.015 11.7176 113.03 11.4668 114.205 11.4668C115.328 11.4668 116.309 11.7176 117.147 12.2192C117.993 12.7209 118.649 13.4471 119.113 14.3979C119.584 15.3413 119.82 16.4831 119.82 17.8232ZM110.454 17.8232C110.454 18.8115 110.585 19.6688 110.847 20.395C111.109 21.1213 111.513 21.6828 112.06 22.0796C112.607 22.4764 113.31 22.6748 114.171 22.6748C115.025 22.6748 115.725 22.4764 116.271 22.0796C116.825 21.6828 117.233 21.1213 117.496 20.395C117.758 19.6688 117.889 18.8115 117.889 17.8232C117.889 16.8424 117.758 15.9964 117.496 15.2852C117.233 14.5664 116.829 14.0124 116.283 13.623C115.736 13.2337 115.029 13.0391 114.16 13.0391C112.88 13.0391 111.94 13.4621 111.341 14.3081C110.75 15.1541 110.454 16.3258 110.454 17.8232ZM142.337 15.6333C142.337 17.4826 142 19.0286 141.327 20.2715C140.653 21.5068 139.676 22.439 138.395 23.0679C137.123 23.6893 135.577 24 133.757 24H129.299V7.58105H134.251C135.921 7.58105 137.358 7.88802 138.564 8.50195C139.769 9.1084 140.698 10.0106 141.349 11.2085C142.008 12.3989 142.337 13.8739 142.337 15.6333ZM140.327 15.7007C140.327 14.2257 140.08 13.0091 139.586 12.0508C139.099 11.0924 138.38 10.3812 137.43 9.91699C136.486 9.44531 135.329 9.20947 133.959 9.20947H131.208V22.3604H133.533C135.794 22.3604 137.489 21.8026 138.62 20.687C139.758 19.5715 140.327 17.9093 140.327 15.7007ZM155.87 11.6914V24H154.343L154.073 22.2705H153.972C153.718 22.6973 153.388 23.0566 152.984 23.3486C152.579 23.6406 152.123 23.8577 151.614 24C151.112 24.1497 150.577 24.2246 150.008 24.2246C149.034 24.2246 148.218 24.0674 147.559 23.7529C146.901 23.4385 146.403 22.9518 146.066 22.293C145.736 21.6341 145.572 20.7881 145.572 19.7549V11.6914H147.458V19.6201C147.458 20.6458 147.691 21.4132 148.155 21.9224C148.619 22.424 149.326 22.6748 150.277 22.6748C151.191 22.6748 151.917 22.5026 152.456 22.1582C153.003 21.8138 153.396 21.3084 153.635 20.6421C153.875 19.9683 153.995 19.1447 153.995 18.1714V11.6914H155.87ZM164.416 11.4893C165.884 11.4893 166.973 11.8187 167.684 12.4775C168.396 13.1364 168.751 14.1883 168.751 15.6333V24H167.392L167.033 22.1807H166.943C166.599 22.6299 166.239 23.008 165.865 23.3149C165.491 23.6144 165.057 23.8428 164.562 24C164.076 24.1497 163.477 24.2246 162.766 24.2246C162.017 24.2246 161.35 24.0936 160.767 23.8315C160.19 23.5695 159.733 23.1727 159.396 22.6411C159.067 22.1095 158.902 21.4357 158.902 20.6196C158.902 19.3918 159.389 18.4484 160.362 17.7896C161.336 17.1307 162.818 16.7713 164.809 16.7114L166.932 16.6216V15.8691C166.932 14.806 166.704 14.061 166.247 13.6343C165.79 13.2075 165.146 12.9941 164.315 12.9941C163.671 12.9941 163.058 13.0877 162.474 13.2749C161.89 13.4621 161.336 13.6829 160.811 13.9375L160.239 12.5225C160.793 12.238 161.429 11.9946 162.148 11.7925C162.867 11.5903 163.623 11.4893 164.416 11.4893ZM166.91 17.9355L165.034 18.0142C163.499 18.0741 162.417 18.3249 161.788 18.7666C161.16 19.2083 160.845 19.8335 160.845 20.6421C160.845 21.3459 161.059 21.8662 161.485 22.2031C161.912 22.54 162.477 22.7085 163.181 22.7085C164.274 22.7085 165.169 22.4053 165.865 21.7988C166.561 21.1924 166.91 20.2827 166.91 19.0698V17.9355ZM178.185 11.4668C178.432 11.4668 178.69 11.4818 178.96 11.5117C179.229 11.5342 179.469 11.5679 179.679 11.6128L179.443 13.3423C179.241 13.2899 179.016 13.2487 178.769 13.2188C178.522 13.1888 178.29 13.1738 178.073 13.1738C177.579 13.1738 177.111 13.2749 176.669 13.4771C176.235 13.6717 175.853 13.9562 175.523 14.3306C175.194 14.6974 174.936 15.1429 174.748 15.667C174.561 16.1836 174.468 16.7601 174.468 17.3965V24H172.592V11.6914H174.142L174.344 13.96H174.423C174.677 13.5033 174.984 13.0877 175.344 12.7134C175.703 12.3315 176.119 12.0283 176.59 11.8037C177.069 11.5791 177.601 11.4668 178.185 11.4668ZM185.979 22.6973C186.286 22.6973 186.6 22.6711 186.922 22.6187C187.244 22.5662 187.506 22.5026 187.708 22.4277V23.8765C187.491 23.9738 187.188 24.0562 186.799 24.1235C186.417 24.1909 186.043 24.2246 185.676 24.2246C185.024 24.2246 184.433 24.1123 183.901 23.8877C183.37 23.6556 182.943 23.2663 182.621 22.7197C182.307 22.1732 182.149 21.417 182.149 20.4512V13.1514H180.397V12.2417L182.161 11.5117L182.902 8.83887H184.025V11.6914H187.63V13.1514H184.025V20.395C184.025 21.1662 184.201 21.7427 184.553 22.1245C184.912 22.5063 185.387 22.6973 185.979 22.6973ZM194.941 11.4668C195.989 11.4668 196.887 11.6989 197.636 12.1631C198.385 12.6273 198.958 13.2786 199.354 14.1172C199.751 14.9482 199.95 15.9215 199.95 17.0371V18.1938H191.448C191.471 19.6388 191.83 20.7394 192.526 21.4956C193.223 22.2518 194.203 22.6299 195.469 22.6299C196.247 22.6299 196.936 22.5588 197.535 22.4165C198.134 22.2743 198.755 22.0646 199.399 21.7876V23.4272C198.778 23.7043 198.16 23.9064 197.546 24.0337C196.94 24.161 196.221 24.2246 195.39 24.2246C194.207 24.2246 193.174 23.985 192.29 23.5059C191.414 23.0192 190.733 22.3079 190.246 21.3721C189.76 20.4362 189.517 19.2907 189.517 17.9355C189.517 16.6104 189.737 15.4648 190.179 14.499C190.628 13.5257 191.257 12.777 192.066 12.2529C192.882 11.7288 193.84 11.4668 194.941 11.4668ZM194.918 12.9941C193.923 12.9941 193.129 13.3198 192.538 13.9712C191.946 14.6226 191.594 15.5322 191.482 16.7002H197.996C197.988 15.9665 197.872 15.3226 197.647 14.7686C197.43 14.207 197.097 13.7728 196.648 13.4658C196.199 13.1514 195.622 12.9941 194.918 12.9941Z" fill="white"/>
</svg>
