<svg width="500" height="300" viewBox="0 0 500 300" fill="none" xmlns="http://www.w3.org/2000/svg">
<rect width="500" height="300" fill="#3B7ED1"/>
<g clip-path="url(#clip0_63_138)">
<path d="M260.851 77.1711C258.434 76.4725 255.917 77.884 255.221 80.3078L237.021 144.183C236.324 146.607 237.732 149.13 240.149 149.829C242.566 150.528 245.083 149.116 245.779 146.692L263.979 82.8172C264.676 80.3934 263.269 77.8697 260.851 77.1711ZM272.312 94.2947C270.534 96.077 270.534 98.9713 272.312 100.754L285.009 113.5L272.297 126.246C270.52 128.029 270.52 130.923 272.297 132.705C274.075 134.488 276.961 134.488 278.739 132.705L294.664 116.737C296.441 114.954 296.441 112.06 294.664 110.278L278.739 94.309C276.961 92.5268 274.075 92.5268 272.297 94.309L272.312 94.2947ZM228.703 94.2947C226.925 92.5125 224.039 92.5125 222.262 94.2947L206.337 110.263C204.559 112.046 204.559 114.94 206.337 116.722L222.262 132.691C224.039 134.473 226.925 134.473 228.703 132.691C230.48 130.909 230.48 128.014 228.703 126.232L215.991 113.5L228.703 100.754C230.48 98.9713 230.48 96.077 228.703 94.2947Z" fill="white"/>
</g>
<path d="M172.586 201H163.047V183.867H172.586V185.625H165.039V191.168H172.152V192.902H165.039V199.242H172.586V201ZM180.66 201.234C179.035 201.234 177.746 200.68 176.793 199.57C175.848 198.461 175.375 196.812 175.375 194.625C175.375 192.414 175.859 190.746 176.828 189.621C177.797 188.488 179.086 187.922 180.695 187.922C181.375 187.922 181.969 188.012 182.477 188.191C182.984 188.371 183.422 188.613 183.789 188.918C184.156 189.215 184.465 189.555 184.715 189.938H184.855C184.824 189.695 184.793 189.363 184.762 188.941C184.73 188.52 184.715 188.176 184.715 187.91V182.766H186.66V201H185.09L184.797 199.172H184.715C184.473 199.555 184.164 199.902 183.789 200.215C183.422 200.527 182.98 200.777 182.465 200.965C181.957 201.145 181.355 201.234 180.66 201.234ZM180.965 199.617C182.34 199.617 183.312 199.227 183.883 198.445C184.453 197.664 184.738 196.504 184.738 194.965V194.613C184.738 192.98 184.465 191.727 183.918 190.852C183.379 189.977 182.395 189.539 180.965 189.539C179.77 189.539 178.875 190 178.281 190.922C177.688 191.836 177.391 193.086 177.391 194.672C177.391 196.25 177.684 197.469 178.27 198.328C178.863 199.188 179.762 199.617 180.965 199.617ZM201.391 188.156V201H199.797L199.516 199.195H199.41C199.145 199.641 198.801 200.016 198.379 200.32C197.957 200.625 197.48 200.852 196.949 201C196.426 201.156 195.867 201.234 195.273 201.234C194.258 201.234 193.406 201.07 192.719 200.742C192.031 200.414 191.512 199.906 191.16 199.219C190.816 198.531 190.645 197.648 190.645 196.57V188.156H192.613V196.43C192.613 197.5 192.855 198.301 193.34 198.832C193.824 199.355 194.562 199.617 195.555 199.617C196.508 199.617 197.266 199.438 197.828 199.078C198.398 198.719 198.809 198.191 199.059 197.496C199.309 196.793 199.434 195.934 199.434 194.918V188.156H201.391ZM210.309 187.945C211.84 187.945 212.977 188.289 213.719 188.977C214.461 189.664 214.832 190.762 214.832 192.27V201H213.414L213.039 199.102H212.945C212.586 199.57 212.211 199.965 211.82 200.285C211.43 200.598 210.977 200.836 210.461 201C209.953 201.156 209.328 201.234 208.586 201.234C207.805 201.234 207.109 201.098 206.5 200.824C205.898 200.551 205.422 200.137 205.07 199.582C204.727 199.027 204.555 198.324 204.555 197.473C204.555 196.191 205.062 195.207 206.078 194.52C207.094 193.832 208.641 193.457 210.719 193.395L212.934 193.301V192.516C212.934 191.406 212.695 190.629 212.219 190.184C211.742 189.738 211.07 189.516 210.203 189.516C209.531 189.516 208.891 189.613 208.281 189.809C207.672 190.004 207.094 190.234 206.547 190.5L205.949 189.023C206.527 188.727 207.191 188.473 207.941 188.262C208.691 188.051 209.48 187.945 210.309 187.945ZM212.91 194.672L210.953 194.754C209.352 194.816 208.223 195.078 207.566 195.539C206.91 196 206.582 196.652 206.582 197.496C206.582 198.23 206.805 198.773 207.25 199.125C207.695 199.477 208.285 199.652 209.02 199.652C210.16 199.652 211.094 199.336 211.82 198.703C212.547 198.07 212.91 197.121 212.91 195.855V194.672ZM224.676 187.922C224.934 187.922 225.203 187.938 225.484 187.969C225.766 187.992 226.016 188.027 226.234 188.074L225.988 189.879C225.777 189.824 225.543 189.781 225.285 189.75C225.027 189.719 224.785 189.703 224.559 189.703C224.043 189.703 223.555 189.809 223.094 190.02C222.641 190.223 222.242 190.52 221.898 190.91C221.555 191.293 221.285 191.758 221.09 192.305C220.895 192.844 220.797 193.445 220.797 194.109V201H218.84V188.156H220.457L220.668 190.523H220.75C221.016 190.047 221.336 189.613 221.711 189.223C222.086 188.824 222.52 188.508 223.012 188.273C223.512 188.039 224.066 187.922 224.676 187.922ZM233.23 201.234C231.605 201.234 230.316 200.68 229.363 199.57C228.418 198.461 227.945 196.812 227.945 194.625C227.945 192.414 228.43 190.746 229.398 189.621C230.367 188.488 231.656 187.922 233.266 187.922C233.945 187.922 234.539 188.012 235.047 188.191C235.555 188.371 235.992 188.613 236.359 188.918C236.727 189.215 237.035 189.555 237.285 189.938H237.426C237.395 189.695 237.363 189.363 237.332 188.941C237.301 188.52 237.285 188.176 237.285 187.91V182.766H239.23V201H237.66L237.367 199.172H237.285C237.043 199.555 236.734 199.902 236.359 200.215C235.992 200.527 235.551 200.777 235.035 200.965C234.527 201.145 233.926 201.234 233.23 201.234ZM233.535 199.617C234.91 199.617 235.883 199.227 236.453 198.445C237.023 197.664 237.309 196.504 237.309 194.965V194.613C237.309 192.98 237.035 191.727 236.488 190.852C235.949 189.977 234.965 189.539 233.535 189.539C232.34 189.539 231.445 190 230.852 190.922C230.258 191.836 229.961 193.086 229.961 194.672C229.961 196.25 230.254 197.469 230.84 198.328C231.434 199.188 232.332 199.617 233.535 199.617ZM254.43 194.555C254.43 195.609 254.293 196.551 254.02 197.379C253.746 198.207 253.352 198.906 252.836 199.477C252.32 200.047 251.695 200.484 250.961 200.789C250.234 201.086 249.41 201.234 248.488 201.234C247.629 201.234 246.84 201.086 246.121 200.789C245.41 200.484 244.793 200.047 244.27 199.477C243.754 198.906 243.352 198.207 243.062 197.379C242.781 196.551 242.641 195.609 242.641 194.555C242.641 193.148 242.879 191.953 243.355 190.969C243.832 189.977 244.512 189.223 245.395 188.707C246.285 188.184 247.344 187.922 248.57 187.922C249.742 187.922 250.766 188.184 251.641 188.707C252.523 189.23 253.207 189.988 253.691 190.98C254.184 191.965 254.43 193.156 254.43 194.555ZM244.656 194.555C244.656 195.586 244.793 196.48 245.066 197.238C245.34 197.996 245.762 198.582 246.332 198.996C246.902 199.41 247.637 199.617 248.535 199.617C249.426 199.617 250.156 199.41 250.727 198.996C251.305 198.582 251.73 197.996 252.004 197.238C252.277 196.48 252.414 195.586 252.414 194.555C252.414 193.531 252.277 192.648 252.004 191.906C251.73 191.156 251.309 190.578 250.738 190.172C250.168 189.766 249.43 189.562 248.523 189.562C247.188 189.562 246.207 190.004 245.582 190.887C244.965 191.77 244.656 192.992 244.656 194.555ZM277.926 192.27C277.926 194.199 277.574 195.812 276.871 197.109C276.168 198.398 275.148 199.371 273.812 200.027C272.484 200.676 270.871 201 268.973 201H264.32V183.867H269.488C271.23 183.867 272.73 184.188 273.988 184.828C275.246 185.461 276.215 186.402 276.895 187.652C277.582 188.895 277.926 190.434 277.926 192.27ZM275.828 192.34C275.828 190.801 275.57 189.531 275.055 188.531C274.547 187.531 273.797 186.789 272.805 186.305C271.82 185.812 270.613 185.566 269.184 185.566H266.312V199.289H268.738C271.098 199.289 272.867 198.707 274.047 197.543C275.234 196.379 275.828 194.645 275.828 192.34ZM292.047 188.156V201H290.453L290.172 199.195H290.066C289.801 199.641 289.457 200.016 289.035 200.32C288.613 200.625 288.137 200.852 287.605 201C287.082 201.156 286.523 201.234 285.93 201.234C284.914 201.234 284.062 201.07 283.375 200.742C282.688 200.414 282.168 199.906 281.816 199.219C281.473 198.531 281.301 197.648 281.301 196.57V188.156H283.27V196.43C283.27 197.5 283.512 198.301 283.996 198.832C284.48 199.355 285.219 199.617 286.211 199.617C287.164 199.617 287.922 199.438 288.484 199.078C289.055 198.719 289.465 198.191 289.715 197.496C289.965 196.793 290.09 195.934 290.09 194.918V188.156H292.047ZM300.965 187.945C302.496 187.945 303.633 188.289 304.375 188.977C305.117 189.664 305.488 190.762 305.488 192.27V201H304.07L303.695 199.102H303.602C303.242 199.57 302.867 199.965 302.477 200.285C302.086 200.598 301.633 200.836 301.117 201C300.609 201.156 299.984 201.234 299.242 201.234C298.461 201.234 297.766 201.098 297.156 200.824C296.555 200.551 296.078 200.137 295.727 199.582C295.383 199.027 295.211 198.324 295.211 197.473C295.211 196.191 295.719 195.207 296.734 194.52C297.75 193.832 299.297 193.457 301.375 193.395L303.59 193.301V192.516C303.59 191.406 303.352 190.629 302.875 190.184C302.398 189.738 301.727 189.516 300.859 189.516C300.188 189.516 299.547 189.613 298.938 189.809C298.328 190.004 297.75 190.234 297.203 190.5L296.605 189.023C297.184 188.727 297.848 188.473 298.598 188.262C299.348 188.051 300.137 187.945 300.965 187.945ZM303.566 194.672L301.609 194.754C300.008 194.816 298.879 195.078 298.223 195.539C297.566 196 297.238 196.652 297.238 197.496C297.238 198.23 297.461 198.773 297.906 199.125C298.352 199.477 298.941 199.652 299.676 199.652C300.816 199.652 301.75 199.336 302.477 198.703C303.203 198.07 303.566 197.121 303.566 195.855V194.672ZM315.332 187.922C315.59 187.922 315.859 187.938 316.141 187.969C316.422 187.992 316.672 188.027 316.891 188.074L316.645 189.879C316.434 189.824 316.199 189.781 315.941 189.75C315.684 189.719 315.441 189.703 315.215 189.703C314.699 189.703 314.211 189.809 313.75 190.02C313.297 190.223 312.898 190.52 312.555 190.91C312.211 191.293 311.941 191.758 311.746 192.305C311.551 192.844 311.453 193.445 311.453 194.109V201H309.496V188.156H311.113L311.324 190.523H311.406C311.672 190.047 311.992 189.613 312.367 189.223C312.742 188.824 313.176 188.508 313.668 188.273C314.168 188.039 314.723 187.922 315.332 187.922ZM323.465 199.641C323.785 199.641 324.113 199.613 324.449 199.559C324.785 199.504 325.059 199.438 325.27 199.359V200.871C325.043 200.973 324.727 201.059 324.32 201.129C323.922 201.199 323.531 201.234 323.148 201.234C322.469 201.234 321.852 201.117 321.297 200.883C320.742 200.641 320.297 200.234 319.961 199.664C319.633 199.094 319.469 198.305 319.469 197.297V189.68H317.641V188.73L319.48 187.969L320.254 185.18H321.426V188.156H325.188V189.68H321.426V197.238C321.426 198.043 321.609 198.645 321.977 199.043C322.352 199.441 322.848 199.641 323.465 199.641ZM332.816 187.922C333.91 187.922 334.848 188.164 335.629 188.648C336.41 189.133 337.008 189.812 337.422 190.688C337.836 191.555 338.043 192.57 338.043 193.734V194.941H329.172C329.195 196.449 329.57 197.598 330.297 198.387C331.023 199.176 332.047 199.57 333.367 199.57C334.18 199.57 334.898 199.496 335.523 199.348C336.148 199.199 336.797 198.98 337.469 198.691V200.402C336.82 200.691 336.176 200.902 335.535 201.035C334.902 201.168 334.152 201.234 333.285 201.234C332.051 201.234 330.973 200.984 330.051 200.484C329.137 199.977 328.426 199.234 327.918 198.258C327.41 197.281 327.156 196.086 327.156 194.672C327.156 193.289 327.387 192.094 327.848 191.086C328.316 190.07 328.973 189.289 329.816 188.742C330.668 188.195 331.668 187.922 332.816 187.922ZM332.793 189.516C331.754 189.516 330.926 189.855 330.309 190.535C329.691 191.215 329.324 192.164 329.207 193.383H336.004C335.996 192.617 335.875 191.945 335.641 191.367C335.414 190.781 335.066 190.328 334.598 190.008C334.129 189.68 333.527 189.516 332.793 189.516Z" fill="white"/>
<defs>
<clipPath id="clip0_63_138">
<rect width="91" height="73" fill="white" transform="translate(205 77)"/>
</clipPath>
</defs>
</svg>
